<svg width="20" height="21" viewBox="0 0 20 21" fill="none" xmlns="http://www.w3.org/2000/svg">
<path d="M20 14.5L17.917 16.583L20 18.666L18.333 20.333L16.25 18.25L14.167 20.333L12.5 18.666L14.583 16.583L12.5 14.5L14.167 12.833L16.25 14.916L18.333 12.833L20 14.5ZM10 2C14.8333 2 18.8333 5.49967 20 10.333C19.9167 10.833 19.7497 11.25 19.583 11.75C18.583 11.1667 17.5 10.75 16.25 10.75C15.5 10.75 14.7497 10.916 14.083 11.166C14.1663 10.916 14.167 10.5829 14.167 10.333C14.167 7.99967 12.3333 6.16602 10 6.16602C7.66667 6.16602 5.83301 7.99967 5.83301 10.333C5.83301 12.6663 7.66667 14.5 10 14.5C10.2499 14.5 10.583 14.4993 10.833 14.416C10.583 15.0827 10.417 15.833 10.417 16.583C10.417 17.3329 10.5831 17.9995 10.833 18.666H10C5.16667 18.666 1.16667 15.1663 0 10.333C1.16667 5.49967 5.16667 2 10 2ZM10 8.66602C10.9205 8.66602 11.667 9.41253 11.667 10.333C11.667 11.2535 10.9205 12 10 12C9.07952 12 8.33301 11.2535 8.33301 10.333C8.33301 9.41253 9.07952 8.66602 10 8.66602Z" fill="black"/>
</svg>
