<svg width="20" height="20" viewBox="0 0 20 20" fill="none" xmlns="http://www.w3.org/2000/svg">
<path d="M1.66667 7.91662C1.66669 6.98929 1.948 6.08377 2.47345 5.31967C2.9989 4.55557 3.74377 3.96883 4.60968 3.63695C5.47559 3.30507 6.4218 3.24366 7.32335 3.46082C8.22489 3.67799 9.03936 4.16352 9.65917 4.85329C9.70283 4.89996 9.75561 4.93718 9.81424 4.96262C9.87286 4.98806 9.93609 5.00119 10 5.00119C10.0639 5.00119 10.1271 4.98806 10.1858 4.96262C10.2444 4.93718 10.2972 4.89996 10.3408 4.85329C10.9587 4.15904 11.7734 3.66943 12.6764 3.44962C13.5794 3.22982 14.5279 3.29024 15.3957 3.62286C16.2636 3.95547 17.0095 4.5445 17.5343 5.31154C18.059 6.07858 18.3378 6.98725 18.3333 7.91662C18.3333 9.82495 17.0833 11.25 15.8333 12.5L11.2567 16.9275C11.1014 17.1058 10.9099 17.249 10.695 17.3477C10.4801 17.4464 10.2467 17.4982 10.0102 17.4997C9.77379 17.5012 9.53971 17.4523 9.32358 17.3564C9.10744 17.2605 8.9142 17.1196 8.75667 16.9433L4.16667 12.5C2.91667 11.25 1.66667 9.83329 1.66667 7.91662Z" stroke="#5E5E5E" stroke-width="2" stroke-linecap="round" stroke-linejoin="round"/>
</svg>
