<svg width="20" height="20" viewBox="0 0 20 20" fill="none" xmlns="http://www.w3.org/2000/svg">
<path d="M10.5517 17.4999H4.16667C3.72464 17.4999 3.30072 17.3243 2.98816 17.0117C2.67559 16.6992 2.5 16.2753 2.5 15.8332V8.33323C2.49994 8.09078 2.55278 7.85124 2.65482 7.63132C2.75687 7.4114 2.90566 7.21639 3.09083 7.05989L8.92417 2.06073C9.22499 1.80648 9.60613 1.66699 10 1.66699C10.3939 1.66699 10.775 1.80648 11.0758 2.06073L16.9092 7.05989C17.0943 7.21639 17.2431 7.4114 17.3452 7.63132C17.4472 7.85124 17.5001 8.09078 17.5 8.33323V10.3957M12.4658 10.5974C12.4149 10.4249 12.3096 10.2735 12.1656 10.1658C12.0215 10.0581 11.8465 9.99994 11.6667 9.99992H8.33333C8.11232 9.99992 7.90036 10.0877 7.74408 10.244C7.5878 10.4003 7.5 10.6122 7.5 10.8333V17.4999M12.5 14.9999H17.5M15 12.4999V17.4999" stroke="#1EABE2" stroke-width="2" stroke-linecap="round" stroke-linejoin="round"/>
</svg>
