<svg width="20" height="20" viewBox="0 0 20 20" fill="none" xmlns="http://www.w3.org/2000/svg">
<path d="M16.6667 7.49984C17.1087 7.49984 17.5326 7.67543 17.8452 7.98799C18.1577 8.30055 18.3333 8.72448 18.3333 9.1665V17.7382C18.3333 17.8552 18.2986 17.9696 18.2336 18.0668C18.1686 18.1641 18.0762 18.24 17.9681 18.2847C17.86 18.3295 17.741 18.3412 17.6262 18.3184C17.5115 18.2956 17.4061 18.2392 17.3233 18.1565L15.4883 16.3215C15.1758 16.0089 14.752 15.8333 14.31 15.8332H8.33332C7.8913 15.8332 7.46737 15.6576 7.15481 15.345C6.84225 15.0325 6.66666 14.6085 6.66666 14.1665V13.3332M13.3333 8.33317C13.3333 8.7752 13.1577 9.19912 12.8452 9.51168C12.5326 9.82424 12.1087 9.99984 11.6667 9.99984H5.68999C5.248 9.99993 4.82414 10.1756 4.51166 10.4882L2.67666 12.3232C2.59391 12.4059 2.48849 12.4622 2.37373 12.4851C2.25897 12.5079 2.14002 12.4962 2.03191 12.4514C1.92381 12.4066 1.83141 12.3308 1.76639 12.2335C1.70138 12.1362 1.66667 12.0218 1.66666 11.9048V3.33317C1.66666 2.89114 1.84225 2.46722 2.15481 2.15466C2.46737 1.8421 2.8913 1.6665 3.33332 1.6665H11.6667C12.1087 1.6665 12.5326 1.8421 12.8452 2.15466C13.1577 2.46722 13.3333 2.89114 13.3333 3.33317V8.33317Z" stroke="#5E5E5E" stroke-width="2" stroke-linecap="round" stroke-linejoin="round"/>
</svg>
