<svg width="20" height="20" viewBox="0 0 20 20" fill="none" xmlns="http://www.w3.org/2000/svg">
<g clip-path="url(#clip0_2199_12465)">
<path d="M13.3333 17.5V15.8333C13.3333 14.9493 12.9821 14.1014 12.357 13.4763C11.7319 12.8512 10.884 12.5 9.99999 12.5H4.99999C4.11593 12.5 3.26809 12.8512 2.64297 13.4763C2.01785 14.1014 1.66666 14.9493 1.66666 15.8333V17.5M13.3333 2.60661C14.0481 2.79192 14.6812 3.20933 15.1331 3.79333C15.585 4.37733 15.8302 5.09485 15.8302 5.83327C15.8302 6.5717 15.585 7.28922 15.1331 7.87322C14.6812 8.45722 14.0481 8.87463 13.3333 9.05994M18.3333 17.4999V15.8332C18.3328 15.0947 18.087 14.3772 17.6345 13.7935C17.182 13.2098 16.5484 12.7929 15.8333 12.6082M10.8333 5.83333C10.8333 7.67428 9.34094 9.16667 7.49999 9.16667C5.65904 9.16667 4.16666 7.67428 4.16666 5.83333C4.16666 3.99238 5.65904 2.5 7.49999 2.5C9.34094 2.5 10.8333 3.99238 10.8333 5.83333Z" stroke="#5E5E5E" stroke-width="2" stroke-linecap="round" stroke-linejoin="round"/>
</g>
<defs>
<clipPath id="clip0_2199_12465">
<rect width="20" height="20" fill="white"/>
</clipPath>
</defs>
</svg>
